HIERARCHY
ROOT Hips
{
	OFFSET 0.000000 0.000000 0.000000
	CHANNELS 6 Xposition Yposition Zposition Xrotation Yrotation Zrotation
	JOINT LeftUpLeg_virtual
	{
		OFFSET 0.000000 0.000000 0.000000
		CHANNELS 3 Xrotation Yrotation Zrotation
		JOINT LeftUpLeg
		{
			OFFSET 11.394100 -6.187798 -0.413800
			CHANNELS 3 Xrotation Yrotation Zrotation
			JOINT LeftLeg
			{
				OFFSET 0.430247 -32.302673 3.732800
				CHANNELS 3 Xrotation Yrotation Zrotation
				JOINT LeftFoot
				{
					OFFSET -0.430247 -48.264931 -6.423300
					CHANNELS 3 Xrotation Yrotation Zrotation
					JOINT LeftToeBase
					{
						OFFSET 4.230900 -16.068199 23.438400
						CHANNELS 3 Xrotation Yrotation Zrotation
						JOINT LeftToe_End
						{
							OFFSET 4.510700 0.695400 19.974600
							CHANNELS 3 Xrotation Yrotation Zrotation
							End Site
							{
								OFFSET 0 0 0
							}
						}
					}
				}
			}
		}
	}
	JOINT RightUpLeg_virtual
	{
		OFFSET 0.000000 0.000000 0.000000
		CHANNELS 3 Xrotation Yrotation Zrotation
		JOINT RightUpLeg
		{
			OFFSET -11.333700 -6.187798 -0.413800
			CHANNELS 3 Xrotation Yrotation Zrotation
			JOINT RightLeg
			{
				OFFSET -0.430392 -32.302628 3.733000
				CHANNELS 3 Xrotation Yrotation Zrotation
				JOINT RightFoot
				{
					OFFSET 0.430392 -48.264973 -6.423500
					CHANNELS 3 Xrotation Yrotation Zrotation
					JOINT RightToeBase
					{
						OFFSET -4.230900 -16.068199 23.438400
						CHANNELS 3 Xrotation Yrotation Zrotation
						JOINT RightToe_End
						{
							OFFSET -4.510700 0.695400 19.974600
							CHANNELS 3 Xrotation Yrotation Zrotation
							End Site
							{
								OFFSET 0 0 0
							}
						}
					}
				}
			}
		}
	}
	JOINT Spine_virtual
	{
		OFFSET 0.000000 0.000000 0.000000
		CHANNELS 3 Xrotation Yrotation Zrotation
		JOINT Spine
		{
			OFFSET -0.002400 12.777504 0.315300
			CHANNELS 3 Xrotation Yrotation Zrotation
			JOINT Spine1
			{
				OFFSET -0.002067 5.816869 0.032633
				CHANNELS 3 Xrotation Yrotation Zrotation
				JOINT Spine1_split
				{
					OFFSET -0.002067 5.816869 0.032633
					CHANNELS 3 Xrotation Yrotation Zrotation
					JOINT Spine2
					{
						OFFSET -0.002067 5.816869 0.032633
						CHANNELS 3 Xrotation Yrotation Zrotation
						JOINT Neck_virtual
						{
							OFFSET 0.000000 0.000000 0.000000
							CHANNELS 3 Xrotation Yrotation Zrotation
							JOINT Neck
							{
								OFFSET -0.003700 21.199493 -0.826900
								CHANNELS 3 Xrotation Yrotation Zrotation
								JOINT Head
								{
									OFFSET 0.000000 20.442200 4.834800
									CHANNELS 3 Xrotation Yrotation Zrotation
									JOINT HeadTop_End
									{
										OFFSET 0.000000 34.668396 4.968400
										CHANNELS 3 Xrotation Yrotation Zrotation
										End Site
										{
											OFFSET 0 0 0
										}
									}
								}
							}
						}
						JOINT LeftShoulder_virtual
						{
							OFFSET 0.000000 0.000000 0.000000
							CHANNELS 3 Xrotation Yrotation Zrotation
							JOINT LeftShoulder
							{
								OFFSET 3.288150 8.794197 -1.372250
								CHANNELS 3 Xrotation Yrotation Zrotation
								JOINT LeftShoulder_split
								{
									OFFSET 3.288150 8.794197 -1.372250
									CHANNELS 3 Xrotation Yrotation Zrotation
									JOINT LeftArm
									{
										OFFSET 11.953299 -2.279007 -0.146200
										CHANNELS 3 Xrotation Yrotation Zrotation
										JOINT LeftForeArm
										{
											OFFSET 18.448900 0.000000 0.000000
											CHANNELS 3 Xrotation Yrotation Zrotation
											JOINT LeftHand
											{
												OFFSET 29.527798 0.000000 0.000000
												CHANNELS 3 Xrotation Yrotation Zrotation
												End Site
												{
													OFFSET 0 0 0
												}
											}
										}
									}
								}
							}
						}
						JOINT RightShoulder_virtual
						{
							OFFSET 0.000000 0.000000 0.000000
							CHANNELS 3 Xrotation Yrotation Zrotation
							JOINT RightShoulder
							{
								OFFSET -3.249400 8.794197 -1.372250
								CHANNELS 3 Xrotation Yrotation Zrotation
								JOINT RightShoulder_split
								{
									OFFSET -3.249400 8.794197 -1.372250
									CHANNELS 3 Xrotation Yrotation Zrotation
									JOINT RightArm
									{
										OFFSET -11.953299 -2.279007 -0.146200
										CHANNELS 3 Xrotation Yrotation Zrotation
										JOINT RightForeArm
										{
											OFFSET -18.448900 0.000000 0.000000
											CHANNELS 3 Xrotation Yrotation Zrotation
											JOINT RightHand
											{
												OFFSET -29.527802 0.000000 0.000000
												CHANNELS 3 Xrotation Yrotation Zrotation
												End Site
												{
													OFFSET 0 0 0
												}
											}
										}
									}
								}
							}
						}
					}
				}
			}
		}
	}
}
MOTION
Frames: 5
Frame Time: 0.03333333
-0.465770 99.022758 11.849087 0.000000 0.000000 0.000000 2.970486 33.615398 -2.234201 -40.544956 6.235183 6.152413 23.633959 -15.655139 -1.404375 7.695274 -12.221876 1.546900 0.177470 -0.648841 -0.181124 0.000000 0.000000 0.000000 2.935022 33.221084 -2.360730 -35.155773 12.678732 4.760772 31.571313 14.895454 -6.269599 2.891729 3.237703 -0.545377 -2.289741 -0.214737 -0.434296 0.000000 0.000000 0.000000 3.672857 34.408150 -2.992113 7.728971 1.069298 -0.681814 0.620883 0.716313 1.276682 0.604301 0.330394 0.567671 0.000000 0.000000 0.000000 1.184162 1.022207 1.468341 -3.580307 29.257016 -8.255754 -6.612305 24.650744 -3.263891 0.000000 0.000000 0.000000 1.309890 1.002076 1.761151 0.170037 -3.153242 -1.604151 4.701480 0.434916 -2.302773 -63.005039 18.525454 -19.211495 11.415245 -74.655928 13.463166 0.000000 0.000000 0.000000 1.313352 0.960655 1.380651 4.721362 6.535157 9.054591 -2.860701 -0.539411 0.834995 11.547073 21.308073 63.093107 10.385685 22.800104 -4.233753 0.000000 0.000000 0.000000 
-1.297003 99.273285 12.259624 0.000000 0.000000 0.000000 3.463596 39.124601 -2.968942 -41.518193 6.601140 7.053153 22.388870 -16.315628 -1.198244 8.811413 -11.232111 1.243593 0.302230 -0.700839 0.063030 0.000000 0.000000 0.000000 3.602688 38.558675 -3.167028 -33.315692 12.144621 4.248860 30.375726 12.424933 -4.870341 1.961083 1.836086 -1.799725 -1.240731 -0.410849 0.170157 0.000000 0.000000 0.000000 4.191565 39.651208 -3.729583 7.700291 0.748222 -1.136475 0.589100 0.453760 1.300983 0.647714 0.403114 0.535262 0.000000 0.000000 0.000000 1.197496 0.769330 1.560028 -3.716876 27.465113 -8.328518 -7.578475 22.407096 -1.712950 0.000000 0.000000 0.000000 1.232618 0.746479 1.881124 0.193364 -6.379005 -0.911035 4.557178 0.396991 -2.158560 -63.108161 16.392205 -20.637464 10.681746 -72.918430 12.950740 0.000000 0.000000 0.000000 1.241084 0.695545 1.512324 4.657615 6.388943 8.723184 -3.223931 -0.388910 0.827310 10.671570 18.190838 63.548756 10.521357 23.309769 -4.439322 0.000000 0.000000 0.000000 
-2.173020 99.540283 12.288483 0.000000 0.000000 0.000000 3.993034 44.060085 -3.857143 -42.214414 6.789824 8.358888 21.624317 -15.673875 -0.851267 8.847147 -9.623360 1.101667 0.330129 -0.721631 0.184175 0.000000 0.000000 0.000000 4.367912 43.315127 -4.140705 -31.656755 11.215165 3.721158 29.384806 9.822152 -3.638924 0.777733 0.459697 -2.640672 -0.344548 -0.366580 0.656774 0.000000 0.000000 0.000000 4.786411 44.323017 -4.605165 7.711293 0.539426 -1.608385 0.603241 0.272336 1.378004 0.676712 0.458560 0.557532 0.000000 0.000000 0.000000 1.245515 0.602086 1.694113 -3.980239 25.746700 -8.266900 -8.469837 20.164527 -0.216313 0.000000 0.000000 0.000000 1.191165 0.576755 2.030262 0.266429 -9.176105 -0.230234 4.252801 0.236649 -1.882757 -63.251370 14.363538 -21.941655 9.889235 -71.300563 12.402640 0.000000 0.000000 0.000000 1.174818 0.521201 1.692776 4.574477 6.349859 8.407202 -3.381959 -0.308060 0.704243 9.150626 14.206336 63.991981 10.625874 23.980145 -4.626843 0.000000 0.000000 0.000000 
-3.084854 99.769775 12.047241 0.000000 0.000000 0.000000 4.506751 48.405284 -4.793779 -42.537766 6.705354 9.974636 21.621232 -13.792036 -0.414314 7.898281 -7.511762 1.233267 0.671689 -0.695671 0.007698 0.000000 0.000000 0.000000 5.112215 47.500257 -5.183921 -30.222737 10.204969 3.337552 28.612402 7.470402 -2.756219 -0.278014 -0.712491 -2.707684 -0.267642 -0.131258 0.847656 0.000000 0.000000 0.000000 5.339873 48.401408 -5.504491 7.771740 0.408938 -2.059366 0.660867 0.147467 1.515445 0.765724 0.475945 0.579860 0.000000 0.000000 0.000000 1.322003 0.491910 1.870434 -4.284070 24.137042 -8.093496 -9.225788 18.032652 1.143974 0.000000 0.000000 0.000000 1.182754 0.458461 2.207299 0.376185 -11.454937 0.394732 3.793238 -0.080998 -1.654669 -63.531052 12.549262 -23.182943 9.265565 -69.828849 12.020114 0.000000 0.000000 0.000000 1.118124 0.413251 1.922706 4.496884 6.398630 8.115289 -3.343029 -0.252805 0.538358 7.041052 9.523410 64.361993 10.612358 24.637928 -4.713533 0.000000 0.000000 0.000000 
-3.992011 99.952705 11.560848 0.000000 0.000000 0.000000 4.941880 52.135059 -5.649856 -42.260344 6.510881 11.713714 22.672383 -10.834583 0.044598 6.133267 -5.031931 1.651278 1.444583 -0.581166 -0.486423 0.000000 0.000000 0.000000 5.729157 51.175066 -6.137800 -28.955299 9.252443 3.127573 28.154193 5.521084 -2.261621 -1.067998 -1.778197 -2.121492 -1.063828 0.151796 0.840340 0.000000 0.000000 0.000000 5.776221 51.899005 -6.328395 7.870885 0.306687 -2.472093 0.739579 0.039221 1.702484 0.882806 0.490039 0.597865 0.000000 0.000000 0.000000 1.406877 0.394092 2.084991 -4.503691 22.695757 -7.867183 -9.811872 16.165369 2.277965 0.000000 0.000000 0.000000 1.189732 0.348792 2.395105 0.494313 -13.187370 0.885809 3.266000 -0.575582 -1.462433 -63.959872 10.994458 -24.372698 8.922648 -68.397064 11.885993 0.000000 0.000000 0.000000 1.070338 0.328879 2.189674 4.444386 6.474437 7.839216 -3.230261 -0.216075 0.247635 4.509490 4.435071 64.603836 10.411842 25.129497 -4.627811 0.000000 0.000000 0.000000 
